<?xml version="1.0" encoding="UTF-8" standalone="no"?>
<svg
   version="1.1"
   id="svg2"
   viewBox="0 0 164.15078 164.15069"
   height="46.327mm"
   width="46.327mm"
   inkscape:version="1.1 (c68e22c387, 2021-05-23)"
   sodipodi:docname="metacritic.svg"
   xmlns:inkscape="http://www.inkscape.org/namespaces/inkscape"
   xmlns:sodipodi="http://sodipodi.sourceforge.net/DTD/sodipodi-0.dtd"
   xmlns="http://www.w3.org/2000/svg"
   xmlns:svg="http://www.w3.org/2000/svg"
   xmlns:rdf="http://www.w3.org/1999/02/22-rdf-syntax-ns#"
   xmlns:cc="http://creativecommons.org/ns#"
   xmlns:dc="http://purl.org/dc/elements/1.1/">
  <sodipodi:namedview
     pagecolor="#ffffff"
     bordercolor="#666666"
     borderopacity="1"
     objecttolerance="10"
     gridtolerance="10"
     guidetolerance="10"
     inkscape:pageopacity="0"
     inkscape:pageshadow="2"
     inkscape:window-width="1680"
     inkscape:window-height="987"
     id="namedview16"
     showgrid="false"
     inkscape:zoom="0.70479192"
     inkscape:cx="346.9109"
     inkscape:cy="12.060297"
     inkscape:window-x="-8"
     inkscape:window-y="-8"
     inkscape:window-maximized="1"
     inkscape:current-layer="svg2"
     inkscape:pagecheckerboard="0"
     inkscape:document-units="mm" />
  <defs
     id="defs4" />
  <metadata
     id="metadata7">
    <rdf:RDF>
      <cc:Work
         rdf:about="">
        <dc:format>image/svg+xml</dc:format>
        <dc:type
           rdf:resource="http://purl.org/dc/dcmitype/StillImage" />
      </cc:Work>
    </rdf:RDF>
  </metadata>
  <g
     transform="translate(0,-882.28411)"
     id="layer5">
    <path
       d="M 154.85638,965.03461 A 71.771339,71.771339 0 0 1 83.106027,1036.8059 71.771339,71.771339 0 0 1 11.313718,965.07657 71.771339,71.771339 0 0 1 83.022097,893.2633 71.771339,71.771339 0 0 1 154.85634,964.95068"
       id="path3481"
       style="fill:#000000;fill-opacity:1" />
  </g>
  <g
     transform="translate(-2.3233729,-885.58577)"
     style="display:inline"
     id="layer2">
    <path
       id="path3402"
       d="m 84.325341,885.5858 a 82.074898,82.074898 0 0 0 -82.001954,82.12305 82.074898,82.074898 0 0 0 82.09961,82.02735 82.074898,82.074898 0 0 0 82.050773,-82.07618 v -0.0957 A 82.074898,82.074898 0 0 0 84.325341,885.5858 Z m -0.375,17.54101 a 64.285713,64.285713 0 0 1 64.343749,64.21094 v 0.0742 A 64.285713,64.285713 0 0 1 84.026513,1031.6971 64.285713,64.285713 0 0 1 19.721825,967.44908 64.285713,64.285713 0 0 1 83.950341,903.12681 Z"
       style="fill:#ffce35;fill-opacity:1" />
  </g>
  <g
     transform="translate(0,-882.28411)"
     style="display:inline"
     id="layer4">
    <g
       transform="rotate(-45)"
       style="font-style:normal;font-weight:normal;font-size:133.72px;line-height:125%;font-family:sans-serif;letter-spacing:0px;word-spacing:0px;fill:#ffffff;fill-opacity:1;stroke:none;stroke-width:1px;stroke-linecap:butt;stroke-linejoin:miter;stroke-opacity:1"
       id="text3351">
      <path
         d="m -670.20077,773.35864 h 19.79052 v -38.11011 c 0,-1.60463 0.13372,-3.47671 0.80232,-5.08134 1.20347,-3.343 4.27903,-7.35459 9.49409,-7.35459 6.41855,0 9.36038,5.61623 9.36038,13.90685 v 36.63919 h 19.79051 v -38.24383 c 0,-1.60463 0.26744,-3.74415 0.80232,-5.21506 1.3372,-3.87787 4.68019,-7.08715 9.36038,-7.08715 6.55226,0 9.62782,5.48251 9.62782,14.97661 v 35.56943 h 19.79051 v -38.51127 c 0,-19.52307 -9.4941,-28.34857 -22.06375,-28.34857 -4.81391,0 -8.8255,1.06976 -12.43593,3.20927 -3.07555,1.87208 -6.01738,4.41275 -8.42434,7.88947 h -0.26744 c -2.80811,-6.81971 -9.4941,-11.09874 -17.91844,-11.09874 -11.23245,0 -16.98239,6.15111 -19.79051,10.29642 h -0.40116 l -0.93604,-8.8255 h -17.11611 c 0.26744,5.74994 0.53487,12.70337 0.53487,20.86027 z"
         style="font-style:normal;font-variant:normal;font-weight:bold;font-stretch:normal;font-family:'Myriad Hebrew';-inkscape-font-specification:'Myriad Hebrew Bold';fill:#ffffff"
         id="path3345" />
    </g>
    <g
       style="font-style:normal;font-weight:normal;font-size:127.306px;line-height:125%;font-family:sans-serif;letter-spacing:0px;word-spacing:0px;fill:#000000;fill-opacity:1;stroke:none;stroke-width:1px;stroke-linecap:butt;stroke-linejoin:miter;stroke-opacity:1"
       id="text3345" />
  </g>
</svg>
